<svg xmlns="http://www.w3.org/2000/svg" viewBox="0 0 512 512">
  <defs>
    <linearGradient id="bg" x1="0%" y1="0%" x2="100%" y2="100%">
      <stop offset="0%" style="stop-color:#FF8C00"/>
      <stop offset="100%" style="stop-color:#FF6200"/>
    </linearGradient>
  </defs>
  <!-- Rounded background -->
  <rect width="512" height="512" rx="90" ry="90" fill="url(#bg)"/>
  <!-- Puzzle piece -->
  <g transform="translate(256,256) scale(0.7)" fill="white">
    <!-- Main puzzle shape -->
    <path d="M-120,-120 h80 v20 c0,22 18,40 40,40 s40,-18 40,-40 v-20 h80 v80 h-20 c-22,0 -40,18 -40,40 s18,40 40,40 h20 v80 h-80 v-20 c0,-22 -18,-40 -40,-40 s-40,18 -40,40 v20 h-80 v-80 h20 c22,0 40,-18 40,-40 s-18,-40 -40,-40 h-20 z"
          fill="white" opacity="0.95"/>
  </g>
</svg>
